<?xml version="1.0" standalone="no"?>
<!DOCTYPE svg PUBLIC "-//W3C//DTD SVG 20010904//EN"
 "http://www.w3.org/TR/2001/REC-SVG-20010904/DTD/svg10.dtd">
<svg version="1.0" xmlns="http://www.w3.org/2000/svg"
 width="640.000000pt" height="640.000000pt" viewBox="0 0 640.000000 640.000000"
 preserveAspectRatio="xMidYMid meet">
<metadata>
Created by potrace 1.14, written by Peter Selinger 2001-2017
</metadata>
<g transform="translate(0.000000,640.000000) scale(0.100000,-0.100000)"
fill="#000000" stroke="none">
<path d="M487 5444 c-3 -3 -34 -6 -69 -8 -35 -1 -77 -10 -95 -19 -36 -19 -70
-62 -77 -98 -4 -20 -37 -151 -50 -199 -3 -8 -14 -53 -25 -100 -12 -47 -23 -92
-25 -100 -21 -78 -88 -351 -92 -370 -3 -14 -9 -38 -14 -55 -27 -89 -41 -166
-37 -200 10 -71 68 -125 144 -132 48 -4 229 -6 248 -3 6 2 15 1 20 0 26 -5
605 -1 614 5 6 3 11 3 11 -2 0 -6 51 -8 91 -4 3 1 6 7 6 14 0 6 37 197 83 422
45 226 84 419 86 430 2 11 9 45 15 75 9 48 14 68 24 115 2 6 5 26 8 45 4 19
13 65 20 103 8 37 12 69 8 71 -3 2 -66 3 -139 2 -72 0 -132 3 -132 7 0 5 -5 5
-12 1 -14 -9 -145 -7 -159 1 -5 4 -9 3 -9 -2 0 -9 -412 -9 -427 0 -6 4 -13 4
-16 1z"/>
<path d="M1903 5442 c-6 -4 -47 -6 -90 -5 -44 1 -85 -2 -91 -6 -6 -3 -13 -20
-16 -36 -3 -17 -21 -109 -41 -205 -20 -96 -37 -186 -40 -200 -2 -14 -16 -81
-30 -150 -14 -69 -28 -140 -31 -159 -3 -18 -7 -41 -9 -50 -38 -168 -91 -458
-85 -465 7 -7 174 -12 205 -6 6 1 15 1 20 0 6 -1 93 -1 195 -1 102 1 190 2
195 2 6 0 57 -1 115 -1 58 -1 110 -1 115 0 6 1 15 1 20 0 31 -7 368 -1 376 7
10 10 10 20 10 133 -1 41 -1 120 0 175 0 55 0 105 -1 110 -1 6 -2 14 -1 19 2
12 3 119 1 131 -1 6 -1 33 -1 60 1 38 1 251 0 320 0 6 1 30 2 55 0 25 0 50 -1
55 -1 6 -2 14 -1 18 5 28 3 176 -2 185 -5 6 -85 10 -230 9 -123 0 -229 3 -235
7 -7 4 -12 4 -12 -1 0 -9 -286 -8 -310 1 -8 3 -20 2 -27 -2z"/>
<path d="M3313 5443 c-5 -2 -66 -4 -138 -5 l-130 -3 -2 -25 c-3 -36 -5 -183
-3 -195 1 -5 1 -32 0 -60 0 -27 -1 -54 -1 -60 3 -75 3 -237 0 -240 -2 -2 -2
-37 1 -79 3 -41 3 -85 0 -98 -4 -13 -4 -41 0 -63 3 -22 3 -78 0 -125 -3 -47
-3 -103 0 -125 4 -22 4 -50 0 -63 -3 -12 -3 -47 -2 -77 l4 -55 302 0 303 0 89
97 c91 99 295 306 397 401 31 29 54 58 52 65 -2 7 -6 26 -9 42 -2 17 -14 80
-26 140 -12 61 -24 119 -26 130 -2 11 -6 31 -9 45 -3 14 -7 36 -10 50 -3 14
-17 86 -31 161 l-27 137 -61 2 c-76 2 -61 2 -188 0 -59 -1 -111 1 -116 4 -4 2
-14 1 -20 -3 -7 -4 -33 -5 -57 -1 -25 4 -45 4 -45 1 0 -3 -27 -6 -60 -6 -33 0
-60 2 -60 5 0 5 -113 7 -127 3z"/>
<path d="M4607 5443 c-4 -3 -55 -6 -114 -5 -59 0 -110 -1 -114 -4 -4 -2 -3
-19 1 -37 5 -17 11 -48 14 -67 3 -19 8 -46 11 -60 3 -14 8 -36 11 -50 2 -14 7
-38 11 -55 8 -38 11 -54 17 -86 2 -14 9 -50 15 -80 6 -30 13 -63 15 -74 15
-71 26 -109 34 -114 45 -28 452 -423 560 -544 29 -32 56 -57 61 -55 5 2 45 37
88 78 43 41 109 102 146 135 38 33 85 75 104 93 19 17 38 32 42 32 5 0 19 -10
33 -22 14 -13 54 -48 88 -78 35 -30 74 -65 86 -77 38 -38 43 -27 22 50 -11 39
-21 81 -23 92 -2 11 -9 38 -15 60 -16 58 -20 78 -25 100 -3 11 -21 83 -40 160
-36 139 -41 159 -49 203 -3 12 -7 26 -10 30 -3 5 -7 19 -10 33 -4 21 -42 177
-49 204 -19 64 -45 100 -87 118 -14 5 -57 11 -95 13 -39 1 -75 3 -80 4 -6 2
-14 1 -20 0 -13 -2 -87 -2 -100 0 -5 1 -14 1 -20 0 -13 -2 -87 -2 -100 0 -5 1
-14 1 -20 0 -21 -4 -95 -1 -104 4 -5 4 -12 3 -15 -2 -3 -5 -28 -6 -56 -2 -27
4 -53 4 -55 1 -7 -6 -133 -3 -144 4 -5 2 -11 2 -14 -2z"/>
<path d="M4234 4322 c-198 -197 -311 -324 -440 -492 -27 -36 -53 -70 -59 -76
-5 -6 -17 -22 -25 -34 -8 -12 -33 -47 -55 -78 -63 -88 -162 -246 -169 -270 -4
-12 -10 -22 -14 -22 -4 0 -18 -25 -32 -55 -14 -30 -28 -55 -32 -55 -5 0 -8 -6
-8 -13 0 -18 -24 -67 -32 -67 -5 0 -8 -8 -8 -18 0 -10 -4 -22 -8 -27 -23 -27
-115 -289 -126 -359 -4 -21 -8 -42 -11 -46 -4 -6 -19 -171 -17 -195 14 -270
58 -456 158 -660 42 -87 75 -146 92 -163 6 -7 12 -17 12 -22 0 -5 6 -15 13
-22 6 -7 32 -40 57 -72 87 -115 223 -243 361 -338 101 -70 338 -188 377 -188
10 0 22 -4 28 -8 16 -15 162 -50 280 -68 115 -18 407 -9 517 16 23 5 57 12 76
15 53 9 208 64 291 103 41 19 78 34 83 34 4 -1 7 2 7 7 0 5 10 13 22 17 64 20
241 156 366 280 56 57 102 106 102 109 0 4 7 13 15 21 47 47 205 318 205 351
0 7 5 13 12 13 6 0 8 3 5 7 -4 3 -3 11 2 17 12 16 65 186 77 251 2 11 7 34 10
50 23 105 28 361 8 445 -8 36 -16 71 -18 80 -5 28 -29 105 -36 115 -6 8 -22
65 -21 72 0 3 -64 143 -107 233 -41 87 -144 263 -215 370 -49 72 -173 240
-186 250 -3 3 -24 27 -46 55 -60 74 -219 235 -233 235 -12 0 -274 -256 -362
-354 -44 -49 -44 -49 -59 -27 -36 50 -176 219 -271 325 -49 56 -302 309 -368
369 -23 20 -47 37 -55 37 -7 0 -81 -67 -163 -148z m288 -1002 c40 -52 75 -97
78 -100 3 -3 18 -23 35 -45 16 -22 33 -44 38 -50 4 -5 85 -111 179 -235 206
-272 220 -290 228 -290 4 0 30 28 58 63 28 34 61 74 74 88 13 15 41 48 63 75
22 26 45 52 50 58 6 6 32 38 60 71 76 91 95 111 95 98 0 -6 6 -18 13 -25 50
-55 126 -246 144 -361 9 -64 9 -258 0 -312 -16 -86 -59 -204 -104 -284 -118
-207 -319 -342 -578 -387 -54 -9 -238 -10 -300 -1 -387 57 -670 332 -731 707
-14 86 -9 262 10 330 22 85 92 230 162 338 48 74 225 313 258 348 6 7 20 24
31 39 l19 27 23 -29 c13 -15 56 -71 95 -123z"/>
<path d="M447 3843 c-4 -3 -33 -6 -64 -7 -55 -1 -58 -2 -57 -26 2 -37 15 -148
20 -173 2 -12 6 -43 8 -70 l5 -48 -32 1 c-18 0 -58 0 -90 -1 -31 0 -62 3 -67
6 -6 3 -10 2 -10 -4 0 -6 -6 -8 -14 -5 -22 8 -92 -32 -118 -68 -22 -32 -23
-39 -23 -244 0 -239 3 -250 71 -290 39 -23 50 -24 202 -24 123 0 162 -3 163
-12 0 -7 2 -22 5 -33 2 -11 6 -40 8 -65 2 -25 7 -67 10 -95 4 -27 9 -63 11
-80 8 -55 26 -200 30 -235 2 -19 11 -88 19 -154 9 -65 19 -141 22 -170 3 -28
7 -64 10 -81 3 -16 7 -48 9 -70 3 -22 11 -92 20 -155 8 -63 17 -137 20 -165 4
-27 8 -60 10 -73 2 -13 7 -53 11 -90 3 -37 8 -76 10 -86 2 -11 4 -47 4 -80 0
-106 1 -130 5 -151 2 -11 4 -26 4 -34 1 -19 77 -91 99 -92 9 -1 28 -3 42 -5
35 -5 241 -5 320 -1 104 5 170 64 170 152 0 17 1 56 2 89 l3 59 1037 -1 c956
0 1037 2 1029 17 -5 9 -19 26 -31 38 -11 13 -50 65 -85 115 -36 51 -68 98 -72
104 -20 27 -95 172 -136 264 -51 113 -113 347 -133 500 -12 100 -11 329 2 408
23 143 72 315 120 427 10 22 18 45 20 50 4 22 108 231 118 237 6 4 8 8 4 8 -4
0 13 34 37 76 25 42 45 79 45 83 0 4 8 16 18 27 9 11 26 35 36 54 11 19 22 37
25 40 13 11 61 90 61 100 0 5 5 10 10 10 6 0 10 4 10 10 0 5 -26 9 -57 8 -32
0 -62 0 -68 2 -5 1 -14 1 -20 0 -13 -2 -147 -2 -160 0 -5 1 -14 1 -20 0 -13
-2 -87 -2 -100 0 -5 1 -14 1 -20 0 -13 -2 -87 -2 -100 0 -5 1 -14 1 -20 0 -5
-1 -28 -1 -50 -1 -38 1 -57 1 -130 0 -16 -1 -33 0 -37 1 -10 2 -86 2 -95 0 -9
-2 -128 -1 -140 1 -4 1 -12 0 -18 -1 -11 -2 -128 -1 -142 1 -4 1 -12 0 -18 -1
-11 -2 -128 -1 -142 1 -4 1 -12 0 -18 -1 -11 -2 -128 -1 -142 1 -4 1 -12 0
-18 -1 -11 -2 -128 -1 -142 1 -4 1 -12 0 -18 -1 -11 -2 -128 -1 -142 1 -4 1
-12 0 -18 -1 -11 -2 -128 -1 -142 1 -4 1 -12 0 -18 -1 -11 -2 -128 -1 -142 1
-4 1 -12 0 -18 -1 -11 -2 -128 -1 -142 1 -4 1 -12 0 -18 -1 -11 -2 -128 -1
-142 1 -4 1 -12 0 -18 -1 -11 -2 -128 -1 -142 1 -4 1 -12 0 -18 -1 -11 -2
-128 -1 -142 1 -4 1 -12 0 -18 -1 -19 -4 -136 0 -144 5 -5 2 -11 2 -14 -2z"/>
</g>
</svg>
